<svg xmlns="http://www.w3.org/2000/svg" width="640" height="640" style="background:#f9f9f9">

    <defs>
      <marker id="arrow" markerWidth="8" markerHeight="8" refX="7" refY="3" orient="auto">
        <path d="M0,0 L0,6 L8,3 z" fill="#555"/>
      </marker>
    </defs>
<path d="M348,120 C348,50 292,50 292,120" fill="none" stroke="#555" stroke-width="1.5" marker-end="url(#arrow)"/><text x="320.0" y="20.0" text-anchor="middle" dominant-baseline="middle" font-size="11" fill="#c0392b">0.20</text><path d="M339.7989898732233,139.79898987322332 Q391.7157287525381,248.2842712474619 500.2010101267767,300.2010101267767" fill="none" stroke="#555" stroke-width="1.5" marker-end="url(#arrow)"/><text x="391.7" y="248.3" text-anchor="middle" dominant-baseline="middle" font-size="11" fill="#c0392b">0.50</text><path d="M320,148 Q280,320 320,492" fill="none" stroke="#555" stroke-width="1.5" marker-end="url(#arrow)"/><text x="280.0" y="320.0" text-anchor="middle" dominant-baseline="middle" font-size="11" fill="#c0392b">0.20</text><path d="M300.2010101267767,139.79898987322332 Q191.7157287525381,191.7157287525381 139.79898987322332,300.2010101267767" fill="none" stroke="#555" stroke-width="1.5" marker-end="url(#arrow)"/><text x="191.7" y="191.7" text-anchor="middle" dominant-baseline="middle" font-size="11" fill="#c0392b">0.10</text><path d="M500.2010101267767,300.2010101267767 Q448.2842712474619,191.7157287525381 339.7989898732233,139.79898987322332" fill="none" stroke="#555" stroke-width="1.5" marker-end="url(#arrow)"/><text x="448.3" y="191.7" text-anchor="middle" dominant-baseline="middle" font-size="11" fill="#c0392b">0.30</text><path d="M520,348 C590,348 590,292 520,292" fill="none" stroke="#555" stroke-width="1.5" marker-end="url(#arrow)"/><text x="620.0" y="320.0" text-anchor="middle" dominant-baseline="middle" font-size="11" fill="#c0392b">0.10</text><path d="M500.2010101267767,339.7989898732233 Q391.7157287525381,391.7157287525381 339.7989898732233,500.2010101267767" fill="none" stroke="#555" stroke-width="1.5" marker-end="url(#arrow)"/><text x="391.7" y="391.7" text-anchor="middle" dominant-baseline="middle" font-size="11" fill="#c0392b">0.40</text><path d="M492,320 Q320,280 148,320" fill="none" stroke="#555" stroke-width="1.5" marker-end="url(#arrow)"/><text x="320.0" y="280.0" text-anchor="middle" dominant-baseline="middle" font-size="11" fill="#c0392b">0.20</text><path d="M320,492 Q360,320 320,148" fill="none" stroke="#555" stroke-width="1.5" marker-end="url(#arrow)"/><text x="360.0" y="320.0" text-anchor="middle" dominant-baseline="middle" font-size="11" fill="#c0392b">0.20</text><path d="M339.7989898732233,500.2010101267767 Q448.2842712474619,448.2842712474619 500.2010101267767,339.7989898732233" fill="none" stroke="#555" stroke-width="1.5" marker-end="url(#arrow)"/><text x="448.3" y="448.3" text-anchor="middle" dominant-baseline="middle" font-size="11" fill="#c0392b">0.30</text><path d="M292,520 C292,590 348,590 348,520" fill="none" stroke="#555" stroke-width="1.5" marker-end="url(#arrow)"/><text x="320.0" y="620.0" text-anchor="middle" dominant-baseline="middle" font-size="11" fill="#c0392b">0.30</text><path d="M300.2010101267767,500.2010101267767 Q248.2842712474619,391.7157287525381 139.79898987322332,339.7989898732233" fill="none" stroke="#555" stroke-width="1.5" marker-end="url(#arrow)"/><text x="248.3" y="391.7" text-anchor="middle" dominant-baseline="middle" font-size="11" fill="#c0392b">0.20</text><path d="M139.79898987322332,300.2010101267767 Q248.2842712474619,248.2842712474619 300.2010101267767,139.79898987322332" fill="none" stroke="#555" stroke-width="1.5" marker-end="url(#arrow)"/><text x="248.3" y="248.3" text-anchor="middle" dominant-baseline="middle" font-size="11" fill="#c0392b">0.40</text><path d="M148,320 Q320,360 492,320" fill="none" stroke="#555" stroke-width="1.5" marker-end="url(#arrow)"/><text x="320.0" y="360.0" text-anchor="middle" dominant-baseline="middle" font-size="11" fill="#c0392b">0.20</text><path d="M139.79898987322332,339.7989898732233 Q191.7157287525381,448.2842712474619 300.2010101267767,500.2010101267767" fill="none" stroke="#555" stroke-width="1.5" marker-end="url(#arrow)"/><text x="191.7" y="448.3" text-anchor="middle" dominant-baseline="middle" font-size="11" fill="#c0392b">0.10</text><path d="M120,292 C50,292 50,348 120,348" fill="none" stroke="#555" stroke-width="1.5" marker-end="url(#arrow)"/><text x="20.0" y="320.0" text-anchor="middle" dominant-baseline="middle" font-size="11" fill="#c0392b">0.30</text>
<circle cx="320.0" cy="120.0" r="28" fill="#2980b9" stroke="#1a5276" stroke-width="2"/><text x="320.0" y="120.0" text-anchor="middle" dominant-baseline="middle" font-size="14" font-weight="bold" fill="white">S1</text><circle cx="520.0" cy="320.0" r="28" fill="#2980b9" stroke="#1a5276" stroke-width="2"/><text x="520.0" y="320.0" text-anchor="middle" dominant-baseline="middle" font-size="14" font-weight="bold" fill="white">S2</text><circle cx="320.0" cy="520.0" r="28" fill="#2980b9" stroke="#1a5276" stroke-width="2"/><text x="320.0" y="520.0" text-anchor="middle" dominant-baseline="middle" font-size="14" font-weight="bold" fill="white">S3</text><circle cx="120.0" cy="320.0" r="28" fill="#2980b9" stroke="#1a5276" stroke-width="2"/><text x="120.0" y="320.0" text-anchor="middle" dominant-baseline="middle" font-size="14" font-weight="bold" fill="white">S4</text>
<text x="320" y="28" text-anchor="middle" font-size="16" font-weight="bold" fill="#333">Markov Chain - 4 States</text>
</svg>